<mxfile host="app.diagrams.net" modified="2023-11-14T15:22:53.304Z" agent="Mozilla/5.0 (Macintosh; Intel Mac OS X 10_15_7) AppleWebKit/537.36 (KHTML, like Gecko) Chrome/117.0.0.0 Safari/537.36" etag="IJcDb4n3jYz1ukveLKMO" version="21.7.5" type="github">
  <diagram name="第 1 页" id="_9Z5770AyhuwPudNfxyO">
    <mxGraphModel dx="855" dy="546" grid="1" gridSize="10" guides="1" tooltips="1" connect="1" arrows="1" fold="1" page="1" pageScale="1" pageWidth="827" pageHeight="1169" math="0" shadow="0">
      <root>
        <mxCell id="0" />
        <mxCell id="1" parent="0" />
        <mxCell id="uaCzfIrwQf4_RrrX9nqL-1" value="" style="rounded=0;whiteSpace=wrap;html=1;fillColor=none;dashed=1;" vertex="1" parent="1">
          <mxGeometry x="144" y="370" width="620" height="60" as="geometry" />
        </mxCell>
        <mxCell id="uaCzfIrwQf4_RrrX9nqL-9" value="" style="edgeStyle=orthogonalEdgeStyle;rounded=0;orthogonalLoop=1;jettySize=auto;html=1;" edge="1" parent="1" source="uaCzfIrwQf4_RrrX9nqL-2" target="uaCzfIrwQf4_RrrX9nqL-8">
          <mxGeometry relative="1" as="geometry" />
        </mxCell>
        <mxCell id="uaCzfIrwQf4_RrrX9nqL-30" style="edgeStyle=orthogonalEdgeStyle;rounded=0;orthogonalLoop=1;jettySize=auto;html=1;exitX=0.5;exitY=1;exitDx=0;exitDy=0;" edge="1" parent="1" source="uaCzfIrwQf4_RrrX9nqL-2" target="uaCzfIrwQf4_RrrX9nqL-20">
          <mxGeometry relative="1" as="geometry" />
        </mxCell>
        <mxCell id="uaCzfIrwQf4_RrrX9nqL-2" value="sequence" style="rounded=0;whiteSpace=wrap;html=1;fillColor=#ffe6cc;strokeColor=#d79b00;" vertex="1" parent="1">
          <mxGeometry x="154" y="380" width="120" height="40" as="geometry" />
        </mxCell>
        <mxCell id="uaCzfIrwQf4_RrrX9nqL-15" style="edgeStyle=orthogonalEdgeStyle;rounded=0;orthogonalLoop=1;jettySize=auto;html=1;exitX=0.5;exitY=0;exitDx=0;exitDy=0;entryX=0;entryY=0.5;entryDx=0;entryDy=0;" edge="1" parent="1" source="uaCzfIrwQf4_RrrX9nqL-3" target="uaCzfIrwQf4_RrrX9nqL-12">
          <mxGeometry relative="1" as="geometry" />
        </mxCell>
        <mxCell id="uaCzfIrwQf4_RrrX9nqL-3" value="action_logits" style="rounded=0;whiteSpace=wrap;html=1;fillColor=#ffe6cc;strokeColor=#d79b00;" vertex="1" parent="1">
          <mxGeometry x="294" y="380" width="120" height="40" as="geometry" />
        </mxCell>
        <mxCell id="uaCzfIrwQf4_RrrX9nqL-27" style="edgeStyle=orthogonalEdgeStyle;rounded=0;orthogonalLoop=1;jettySize=auto;html=1;exitX=0.5;exitY=1;exitDx=0;exitDy=0;entryX=0;entryY=0.5;entryDx=0;entryDy=0;" edge="1" parent="1" source="uaCzfIrwQf4_RrrX9nqL-4" target="uaCzfIrwQf4_RrrX9nqL-24">
          <mxGeometry relative="1" as="geometry" />
        </mxCell>
        <mxCell id="uaCzfIrwQf4_RrrX9nqL-4" value="values" style="rounded=0;whiteSpace=wrap;html=1;fillColor=#ffe6cc;strokeColor=#d79b00;" vertex="1" parent="1">
          <mxGeometry x="430" y="380" width="120" height="40" as="geometry" />
        </mxCell>
        <mxCell id="uaCzfIrwQf4_RrrX9nqL-18" style="edgeStyle=orthogonalEdgeStyle;rounded=0;orthogonalLoop=1;jettySize=auto;html=1;exitX=0.5;exitY=0;exitDx=0;exitDy=0;entryX=0;entryY=0.5;entryDx=0;entryDy=0;" edge="1" parent="1" source="uaCzfIrwQf4_RrrX9nqL-5" target="uaCzfIrwQf4_RrrX9nqL-16">
          <mxGeometry relative="1" as="geometry" />
        </mxCell>
        <mxCell id="uaCzfIrwQf4_RrrX9nqL-5" value="advantages" style="rounded=0;whiteSpace=wrap;html=1;fillColor=#ffe6cc;strokeColor=#d79b00;" vertex="1" parent="1">
          <mxGeometry x="574" y="380" width="80" height="40" as="geometry" />
        </mxCell>
        <mxCell id="uaCzfIrwQf4_RrrX9nqL-29" style="edgeStyle=orthogonalEdgeStyle;rounded=0;orthogonalLoop=1;jettySize=auto;html=1;exitX=0.5;exitY=1;exitDx=0;exitDy=0;entryX=0;entryY=0.5;entryDx=0;entryDy=0;" edge="1" parent="1" source="uaCzfIrwQf4_RrrX9nqL-6" target="uaCzfIrwQf4_RrrX9nqL-25">
          <mxGeometry relative="1" as="geometry" />
        </mxCell>
        <mxCell id="uaCzfIrwQf4_RrrX9nqL-6" value="returns" style="rounded=0;whiteSpace=wrap;html=1;fillColor=#ffe6cc;strokeColor=#d79b00;" vertex="1" parent="1">
          <mxGeometry x="670" y="380" width="80" height="40" as="geometry" />
        </mxCell>
        <mxCell id="uaCzfIrwQf4_RrrX9nqL-7" value="&lt;font style=&quot;font-size: 18px;&quot;&gt;Experience&lt;/font&gt;" style="text;html=1;strokeColor=none;fillColor=none;align=center;verticalAlign=middle;whiteSpace=wrap;rounded=0;" vertex="1" parent="1">
          <mxGeometry x="64" y="385" width="60" height="30" as="geometry" />
        </mxCell>
        <mxCell id="uaCzfIrwQf4_RrrX9nqL-11" value="" style="edgeStyle=orthogonalEdgeStyle;rounded=0;orthogonalLoop=1;jettySize=auto;html=1;" edge="1" parent="1" source="uaCzfIrwQf4_RrrX9nqL-8" target="uaCzfIrwQf4_RrrX9nqL-10">
          <mxGeometry relative="1" as="geometry" />
        </mxCell>
        <mxCell id="uaCzfIrwQf4_RrrX9nqL-8" value="Actor" style="rounded=0;whiteSpace=wrap;html=1;fillColor=#d5e8d4;strokeColor=#82b366;" vertex="1" parent="1">
          <mxGeometry x="154" y="250" width="120" height="40" as="geometry" />
        </mxCell>
        <mxCell id="uaCzfIrwQf4_RrrX9nqL-13" style="edgeStyle=orthogonalEdgeStyle;rounded=0;orthogonalLoop=1;jettySize=auto;html=1;exitX=1;exitY=0.5;exitDx=0;exitDy=0;entryX=0;entryY=0.5;entryDx=0;entryDy=0;" edge="1" parent="1" source="uaCzfIrwQf4_RrrX9nqL-10" target="uaCzfIrwQf4_RrrX9nqL-12">
          <mxGeometry relative="1" as="geometry" />
        </mxCell>
        <mxCell id="uaCzfIrwQf4_RrrX9nqL-10" value="action_logits" style="rounded=0;whiteSpace=wrap;html=1;" vertex="1" parent="1">
          <mxGeometry x="340" y="250" width="120" height="40" as="geometry" />
        </mxCell>
        <mxCell id="uaCzfIrwQf4_RrrX9nqL-19" style="edgeStyle=orthogonalEdgeStyle;rounded=0;orthogonalLoop=1;jettySize=auto;html=1;exitX=0.5;exitY=1;exitDx=0;exitDy=0;entryX=0;entryY=0.5;entryDx=0;entryDy=0;" edge="1" parent="1" source="uaCzfIrwQf4_RrrX9nqL-12" target="uaCzfIrwQf4_RrrX9nqL-16">
          <mxGeometry relative="1" as="geometry" />
        </mxCell>
        <mxCell id="uaCzfIrwQf4_RrrX9nqL-12" value="advantages" style="rounded=0;whiteSpace=wrap;html=1;" vertex="1" parent="1">
          <mxGeometry x="574" y="280" width="80" height="40" as="geometry" />
        </mxCell>
        <mxCell id="uaCzfIrwQf4_RrrX9nqL-16" value="pg_loss" style="rounded=0;whiteSpace=wrap;html=1;fillColor=#1ba1e2;fontColor=#ffffff;strokeColor=#006EAF;" vertex="1" parent="1">
          <mxGeometry x="674" y="320" width="80" height="40" as="geometry" />
        </mxCell>
        <mxCell id="uaCzfIrwQf4_RrrX9nqL-22" value="" style="edgeStyle=orthogonalEdgeStyle;rounded=0;orthogonalLoop=1;jettySize=auto;html=1;" edge="1" parent="1" source="uaCzfIrwQf4_RrrX9nqL-20" target="uaCzfIrwQf4_RrrX9nqL-21">
          <mxGeometry relative="1" as="geometry" />
        </mxCell>
        <mxCell id="uaCzfIrwQf4_RrrX9nqL-20" value="Critic" style="rounded=0;whiteSpace=wrap;html=1;fillColor=#d5e8d4;strokeColor=#82b366;" vertex="1" parent="1">
          <mxGeometry x="154" y="510" width="120" height="40" as="geometry" />
        </mxCell>
        <mxCell id="uaCzfIrwQf4_RrrX9nqL-26" style="edgeStyle=orthogonalEdgeStyle;rounded=0;orthogonalLoop=1;jettySize=auto;html=1;exitX=1;exitY=0.5;exitDx=0;exitDy=0;entryX=0;entryY=0.5;entryDx=0;entryDy=0;" edge="1" parent="1" source="uaCzfIrwQf4_RrrX9nqL-21" target="uaCzfIrwQf4_RrrX9nqL-24">
          <mxGeometry relative="1" as="geometry">
            <Array as="points">
              <mxPoint x="490" y="530" />
              <mxPoint x="490" y="490" />
            </Array>
          </mxGeometry>
        </mxCell>
        <mxCell id="uaCzfIrwQf4_RrrX9nqL-21" value="values" style="rounded=0;whiteSpace=wrap;html=1;" vertex="1" parent="1">
          <mxGeometry x="340" y="510" width="120" height="40" as="geometry" />
        </mxCell>
        <mxCell id="uaCzfIrwQf4_RrrX9nqL-28" style="edgeStyle=orthogonalEdgeStyle;rounded=0;orthogonalLoop=1;jettySize=auto;html=1;exitX=1;exitY=0.5;exitDx=0;exitDy=0;entryX=0;entryY=0.5;entryDx=0;entryDy=0;" edge="1" parent="1" source="uaCzfIrwQf4_RrrX9nqL-24" target="uaCzfIrwQf4_RrrX9nqL-25">
          <mxGeometry relative="1" as="geometry">
            <Array as="points">
              <mxPoint x="710" y="490" />
              <mxPoint x="710" y="470" />
            </Array>
          </mxGeometry>
        </mxCell>
        <mxCell id="uaCzfIrwQf4_RrrX9nqL-24" value="clip_values" style="rounded=0;whiteSpace=wrap;html=1;" vertex="1" parent="1">
          <mxGeometry x="520" y="470" width="80" height="40" as="geometry" />
        </mxCell>
        <mxCell id="uaCzfIrwQf4_RrrX9nqL-25" value="vf_loss" style="rounded=0;whiteSpace=wrap;html=1;fillColor=#1ba1e2;fontColor=#ffffff;strokeColor=#006EAF;" vertex="1" parent="1">
          <mxGeometry x="747" y="450" width="80" height="40" as="geometry" />
        </mxCell>
        <mxCell id="uaCzfIrwQf4_RrrX9nqL-31" value="Inference" style="text;html=1;strokeColor=none;fillColor=none;align=center;verticalAlign=middle;whiteSpace=wrap;rounded=0;" vertex="1" parent="1">
          <mxGeometry x="274" y="240" width="60" height="30" as="geometry" />
        </mxCell>
        <mxCell id="uaCzfIrwQf4_RrrX9nqL-32" value="Inference" style="text;html=1;strokeColor=none;fillColor=none;align=center;verticalAlign=middle;whiteSpace=wrap;rounded=0;" vertex="1" parent="1">
          <mxGeometry x="274" y="500" width="60" height="30" as="geometry" />
        </mxCell>
      </root>
    </mxGraphModel>
  </diagram>
</mxfile>
